<?xml version="1.0" encoding="utf-8" standalone="no"?>
<!DOCTYPE svg PUBLIC "-//W3C//DTD SVG 1.1//EN"
  "http://www.w3.org/Graphics/SVG/1.1/DTD/svg11.dtd">
<svg xmlns:xlink="http://www.w3.org/1999/xlink" width="528.84pt" height="392.076pt" viewBox="0 0 528.84 392.076" xmlns="http://www.w3.org/2000/svg" version="1.1">
 <metadata>
  <rdf:RDF xmlns:dc="http://purl.org/dc/elements/1.1/" xmlns:cc="http://creativecommons.org/ns#" xmlns:rdf="http://www.w3.org/1999/02/22-rdf-syntax-ns#">
   <cc:Work>
    <dc:type rdf:resource="http://purl.org/dc/dcmitype/StillImage"/>
    <dc:date>2026-07-03T13:15:10.106611</dc:date>
    <dc:format>image/svg+xml</dc:format>
    <dc:creator>
     <cc:Agent>
      <dc:title>Matplotlib v3.7.5, https://matplotlib.org/</dc:title>
     </cc:Agent>
    </dc:creator>
   </cc:Work>
  </rdf:RDF>
 </metadata>
 <defs>
  <style type="text/css">*{stroke-linejoin: round; stroke-linecap: butt}</style>
 </defs>
 <g id="figure_1">
  <g id="patch_1">
   <path d="M 0 392.076 
L 528.84 392.076 
L 528.84 0 
L 0 0 
z
" style="fill: #ffffff"/>
  </g>
  <g id="axes_1">
   <g id="patch_2">
    <path d="M 12.75786 211.571782 
L 254.27214 211.571782 
Q 259.32474 211.571782 259.32474 208.295849 
L 259.32474 51.706276 
Q 259.32474 48.430343 254.27214 48.430343 
L 12.75786 48.430343 
Q 7.70526 48.430343 7.70526 51.706276 
L 7.70526 208.295849 
Q 7.70526 211.571782 12.75786 211.571782 
z
" clip-path="url(#pded09817eb)" style="fill: #ffffff; stroke-dasharray: 3.33,1.44; stroke-dashoffset: 0; stroke: #94a3b8; stroke-width: 0.9; stroke-linejoin: miter"/>
   </g>
   <g id="patch_3">
    <path d="M 33.97878 144.742759 
L 121.89402 144.742759 
Q 125.9361 144.742759 125.9361 142.122013 
L 125.9361 101.50045 
Q 125.9361 98.879704 121.89402 98.879704 
L 33.97878 98.879704 
Q 29.9367 98.879704 29.9367 101.50045 
L 29.9367 142.122013 
Q 29.9367 144.742759 33.97878 144.742759 
z
" clip-path="url(#pded09817eb)" style="fill: #e8f1f8; stroke: #0b4f6c; stroke-width: 0.9; stroke-linejoin: miter"/>
   </g>
   <g id="patch_4">
    <path d="M 145.13598 144.742759 
L 233.05122 144.742759 
Q 237.0933 144.742759 237.0933 142.122013 
L 237.0933 101.50045 
Q 237.0933 98.879704 233.05122 98.879704 
L 145.13598 98.879704 
Q 141.0939 98.879704 141.0939 101.50045 
L 141.0939 142.122013 
Q 141.0939 144.742759 145.13598 144.742759 
z
" clip-path="url(#pded09817eb)" style="fill: #e8f1f8; stroke: #0b4f6c; stroke-width: 0.9; stroke-linejoin: miter"/>
   </g>
   <g id="text_1">
    <text style="fill: #0b4f6c; font: 700 10.5px 'Arial', 'Helvetica', 'DejaVu Sans', sans-serif; text-anchor: start" x="17.3052" y="62.290311" transform="rotate(-0 17.3052 62.290311)">a</text>
   </g>
   <g id="text_2">
    <text style="fill: #1f2937; font: 700 8.8px 'Arial', 'Helvetica', 'DejaVu Sans', sans-serif; text-anchor: start" x="40.0419" y="61.849639" transform="rotate(-0 40.0419 61.849639)">Event and numerical inputs</text>
   </g>
   <g id="text_3">
    <text style="fill: #1f2937; font: 700 8.4px 'Arial', 'Helvetica', 'DejaVu Sans', sans-serif; text-anchor: middle" x="77.9364" y="118.026472" transform="rotate(-0 77.9364 118.026472)">Numerical state</text>
   </g>
   <g id="text_4">
    <text style="fill: #475569; font: 7.2px 'Arial', 'Helvetica', 'DejaVu Sans', sans-serif" transform="translate(53.853525 127.40171)">load, PV, price,</text>
    <text style="fill: #475569; font: 7.2px 'Arial', 'Helvetica', 'DejaVu Sans', sans-serif" transform="translate(57.53565 135.274741)">T, SOC, time</text>
   </g>
   <g id="text_5">
    <text style="fill: #1f2937; font: 700 8.4px 'Arial', 'Helvetica', 'DejaVu Sans', sans-serif; text-anchor: middle" x="189.0936" y="118.077659" transform="rotate(-0 189.0936 118.077659)">Operational text</text>
   </g>
   <g id="text_6">
    <text style="fill: #475569; font: 7.2px 'Arial', 'Helvetica', 'DejaVu Sans', sans-serif" transform="translate(161.680725 123.423007)">weather warning,</text>
    <text style="fill: #475569; font: 7.2px 'Arial', 'Helvetica', 'DejaVu Sans', sans-serif" transform="translate(166.486163 131.380413)">market notice,</text>
    <text style="fill: #475569; font: 7.2px 'Arial', 'Helvetica', 'DejaVu Sans', sans-serif" transform="translate(160.882538 139.253445)">curtailment notice</text>
   </g>
   <g id="text_7">
    <text style="fill: #64748b; font: 7px 'Arial', 'Helvetica', 'DejaVu Sans', sans-serif" transform="translate(100.053906 183.746134)">public-data-calibrated</text>
    <text style="fill: #64748b; font: 7px 'Arial', 'Helvetica', 'DejaVu Sans', sans-serif" transform="translate(93.445469 191.174884)">15-min dispatch trajectory</text>
   </g>
  </g>
  <g id="axes_2">
   <g id="patch_5">
    <path d="M 274.56786 211.571782 
L 516.08214 211.571782 
Q 521.13474 211.571782 521.13474 208.295849 
L 521.13474 51.706276 
Q 521.13474 48.430343 516.08214 48.430343 
L 274.56786 48.430343 
Q 269.51526 48.430343 269.51526 51.706276 
L 269.51526 208.295849 
Q 269.51526 211.571782 274.56786 211.571782 
z
" clip-path="url(#pf7870a446c)" style="fill: #ffffff; stroke-dasharray: 3.33,1.44; stroke-dashoffset: 0; stroke: #94a3b8; stroke-width: 0.9; stroke-linejoin: miter"/>
   </g>
   <g id="patch_6">
    <path d="M 295.78878 138.190894 
L 378.65142 138.190894 
Q 382.6935 138.190894 382.6935 135.570148 
L 382.6935 98.224517 
Q 382.6935 95.603771 378.65142 95.603771 
L 295.78878 95.603771 
Q 291.7467 95.603771 291.7467 98.224517 
L 291.7467 135.570148 
Q 291.7467 138.190894 295.78878 138.190894 
z
" clip-path="url(#pf7870a446c)" style="fill: #fff2e5; stroke: #b45309; stroke-width: 0.9; stroke-linejoin: miter"/>
   </g>
   <g id="patch_7">
    <path d="M 409.47228 138.190894 
L 497.38752 138.190894 
Q 501.4296 138.190894 501.4296 135.570148 
L 501.4296 98.224517 
Q 501.4296 95.603771 497.38752 95.603771 
L 409.47228 95.603771 
Q 405.4302 95.603771 405.4302 98.224517 
L 405.4302 135.570148 
Q 405.4302 138.190894 409.47228 138.190894 
z
" clip-path="url(#pf7870a446c)" style="fill: #fff2e5; stroke: #b45309; stroke-width: 0.9; stroke-linejoin: miter"/>
   </g>
   <g id="patch_8">
    <path d="M 382.165234 116.897332 
Q 394.061267 116.897332 404.951069 116.897332 
" clip-path="url(#pf7870a446c)" style="fill: none; stroke: #b45309; stroke-width: 0.9; stroke-linecap: round"/>
    <path d="M 401.751069 115.297332 
L 404.951069 116.897332 
L 401.751069 118.497332 
z
" clip-path="url(#pf7870a446c)" style="fill: #b45309; stroke: #b45309; stroke-width: 0.9; stroke-linecap: round"/>
   </g>
   <g id="text_8">
    <text style="fill: #0b4f6c; font: 700 10.5px 'Arial', 'Helvetica', 'DejaVu Sans', sans-serif; text-anchor: start" x="279.1152" y="62.290311" transform="rotate(-0 279.1152 62.290311)">b</text>
   </g>
   <g id="text_9">
    <text style="fill: #1f2937; font: 700 8.8px 'Arial', 'Helvetica', 'DejaVu Sans', sans-serif; text-anchor: start" x="301.8519" y="61.845514" transform="rotate(-0 301.8519 61.845514)">DeepSeek semantic mapping</text>
   </g>
   <g id="text_10">
    <text style="fill: #1f2937; font: 700 8.4px 'Arial', 'Helvetica', 'DejaVu Sans', sans-serif; text-anchor: middle" x="337.2201" y="113.622391" transform="rotate(-0 337.2201 113.622391)">DeepSeek encoder</text>
   </g>
   <g id="text_11">
    <text style="fill: #475569; font: 7.2px 'Arial', 'Helvetica', 'DejaVu Sans', sans-serif" transform="translate(309.2031 121.7983)">queried per event</text>
    <text style="fill: #475569; font: 7.2px 'Arial', 'Helvetica', 'DejaVu Sans', sans-serif" transform="translate(304.008413 129.786644)">(OpenAI-compatible)</text>
   </g>
   <g id="text_12">
    <text style="fill: #1f2937; font: 700 8.4px 'Arial', 'Helvetica', 'DejaVu Sans', sans-serif; text-anchor: middle" x="453.4299" y="113.571203" transform="rotate(-0 453.4299 113.571203)">Cached risk vector</text>
   </g>
   <g id="text_13">
    <text style="fill: #475569; font: 7.2px 'Arial', 'Helvetica', 'DejaVu Sans', sans-serif" transform="translate(427.222463 121.855956)">[risk, price, load,</text>
    <text style="fill: #475569; font: 7.2px 'Arial', 'Helvetica', 'DejaVu Sans', sans-serif" transform="translate(413.213963 129.728987)">curtailment, storage bias]</text>
   </g>
   <g id="text_14">
    <text style="fill: #b45309; font: italic 7px 'Arial', 'Helvetica', 'DejaVu Sans', sans-serif" transform="translate(348.836797 180.48267)">LLM maps text to scores only;</text>
    <text style="fill: #b45309; font: italic 7px 'Arial', 'Helvetica', 'DejaVu Sans', sans-serif" transform="translate(344.357891 187.968514)">it never emits the dispatch action</text>
   </g>
  </g>
  <g id="axes_3">
   <g id="patch_9">
    <path d="M 12.75786 384.548407 
L 254.27214 384.548407 
Q 259.32474 384.548407 259.32474 381.272474 
L 259.32474 224.682901 
Q 259.32474 221.406968 254.27214 221.406968 
L 12.75786 221.406968 
Q 7.70526 221.406968 7.70526 224.682901 
L 7.70526 381.272474 
Q 7.70526 384.548407 12.75786 384.548407 
z
" clip-path="url(#p6a08ad3948)" style="fill: #ffffff; stroke-dasharray: 3.33,1.44; stroke-dashoffset: 0; stroke: #94a3b8; stroke-width: 0.9; stroke-linejoin: miter"/>
   </g>
   <g id="patch_10">
    <path d="M 28.92618 317.719384 
L 86.52582 317.719384 
Q 90.5679 317.719384 90.5679 315.098638 
L 90.5679 277.753007 
Q 90.5679 275.132261 86.52582 275.132261 
L 28.92618 275.132261 
Q 24.8841 275.132261 24.8841 277.753007 
L 24.8841 315.098638 
Q 24.8841 317.719384 28.92618 317.719384 
z
" clip-path="url(#p6a08ad3948)" style="fill: #eaf7f2; stroke: #2a9d8f; stroke-width: 0.9; stroke-linejoin: miter"/>
   </g>
   <g id="patch_11">
    <path d="M 104.71518 317.719384 
L 162.31482 317.719384 
Q 166.3569 317.719384 166.3569 315.098638 
L 166.3569 277.753007 
Q 166.3569 275.132261 162.31482 275.132261 
L 104.71518 275.132261 
Q 100.6731 275.132261 100.6731 277.753007 
L 100.6731 315.098638 
Q 100.6731 317.719384 104.71518 317.719384 
z
" clip-path="url(#p6a08ad3948)" style="fill: #eaf7f2; stroke: #2a9d8f; stroke-width: 0.9; stroke-linejoin: miter"/>
   </g>
   <g id="patch_12">
    <path d="M 180.50418 317.719384 
L 238.10382 317.719384 
Q 242.1459 317.719384 242.1459 315.098638 
L 242.1459 277.753007 
Q 242.1459 275.132261 238.10382 275.132261 
L 180.50418 275.132261 
Q 176.4621 275.132261 176.4621 277.753007 
L 176.4621 315.098638 
Q 176.4621 317.719384 180.50418 317.719384 
z
" clip-path="url(#p6a08ad3948)" style="fill: #eaf7f2; stroke: #2a9d8f; stroke-width: 0.9; stroke-linejoin: miter"/>
   </g>
   <g id="patch_13">
    <path d="M 90.043643 296.425822 
Q 95.621029 296.425822 100.192184 296.425822 
" clip-path="url(#p6a08ad3948)" style="fill: none; stroke: #2a9d8f; stroke-width: 0.9; stroke-linecap: round"/>
    <path d="M 96.992184 294.825822 
L 100.192184 296.425822 
L 96.992184 298.025822 
z
" clip-path="url(#p6a08ad3948)" style="fill: #2a9d8f; stroke: #2a9d8f; stroke-width: 0.9; stroke-linecap: round"/>
   </g>
   <g id="patch_14">
    <path d="M 165.832643 296.425822 
Q 171.410029 296.425822 175.981184 296.425822 
" clip-path="url(#p6a08ad3948)" style="fill: none; stroke: #2a9d8f; stroke-width: 0.9; stroke-linecap: round"/>
    <path d="M 172.781184 294.825822 
L 175.981184 296.425822 
L 172.781184 298.025822 
z
" clip-path="url(#p6a08ad3948)" style="fill: #2a9d8f; stroke: #2a9d8f; stroke-width: 0.9; stroke-linecap: round"/>
   </g>
   <g id="patch_15">
    <path d="M 207.984972 317.584636 
Q 178.749951 350.437599 136.475455 358.143099 
" clip-path="url(#p6a08ad3948)" style="fill: none; stroke: #b45309; stroke-width: 0.9; stroke-linecap: round"/>
    <path d="M 139.910496 359.143345 
L 136.475455 358.143099 
L 139.336676 355.995214 
z
" clip-path="url(#p6a08ad3948)" style="fill: #b45309; stroke: #b45309; stroke-width: 0.9; stroke-linecap: round"/>
   </g>
   <g id="text_15">
    <text style="fill: #0b4f6c; font: 700 10.5px 'Arial', 'Helvetica', 'DejaVu Sans', sans-serif; text-anchor: start" x="17.3052" y="235.266936" transform="rotate(-0 17.3052 235.266936)">c</text>
   </g>
   <g id="text_16">
    <text style="fill: #1f2937; font: 700 8.8px 'Arial', 'Helvetica', 'DejaVu Sans', sans-serif; text-anchor: start" x="40.0419" y="234.826264" transform="rotate(-0 40.0419 234.826264)">LE-DRL-SAC decision core</text>
   </g>
   <g id="text_17">
    <text style="fill: #1f2937; font: 700 8.4px 'Arial', 'Helvetica', 'DejaVu Sans', sans-serif; text-anchor: middle" x="57.726" y="293.044568" transform="rotate(-0 57.726 293.044568)">Augmented state</text>
   </g>
   <g id="text_18">
    <text style="fill: #475569; font: 7.2px 'Arial', 'Helvetica', 'DejaVu Sans', sans-serif" transform="translate(41.820188 301.426634)">numeric +</text>
    <text style="fill: #475569; font: 7.2px 'Arial', 'Helvetica', 'DejaVu Sans', sans-serif" transform="translate(43.3215 309.299665)">semantic</text>
   </g>
   <g id="text_19">
    <text style="fill: #1f2937; font: 700 8.4px 'Arial', 'Helvetica', 'DejaVu Sans', sans-serif; text-anchor: middle" x="133.515" y="293.099693" transform="rotate(-0 133.515 293.099693)">SAC actor</text>
   </g>
   <g id="text_20">
    <text style="fill: #475569; font: 7.2px 'Arial', 'Helvetica', 'DejaVu Sans', sans-serif; text-anchor: middle" x="133.515" y="305.407024" transform="rotate(-0 133.515 305.407024)">a_SAC</text>
   </g>
   <g id="text_21">
    <text style="fill: #1f2937; font: 700 8.4px 'Arial', 'Helvetica', 'DejaVu Sans', sans-serif; text-anchor: middle" x="209.304" y="293.095756" transform="rotate(-0 209.304 293.095756)">Safety layer</text>
   </g>
   <g id="text_22">
    <text style="fill: #475569; font: 7.2px 'Arial', 'Helvetica', 'DejaVu Sans', sans-serif" transform="translate(185.595188 301.428321)">a=(1-w)a_SAC</text>
    <text style="fill: #475569; font: 7.2px 'Arial', 'Helvetica', 'DejaVu Sans', sans-serif" transform="translate(191.79675 309.385727)">+ w a_sem</text>
   </g>
   <g id="text_23">
    <text style="fill: #2a9d8f; font: 7px 'Arial', 'Helvetica', 'DejaVu Sans', sans-serif; text-anchor: middle" x="133.515" y="370.316337" transform="rotate(-0 133.515 370.316337)">w = 0.9, prior power = 2.0 MW</text>
   </g>
  </g>
  <g id="axes_4">
   <g id="patch_16">
    <path d="M 274.56786 384.548407 
L 516.08214 384.548407 
Q 521.13474 384.548407 521.13474 381.272474 
L 521.13474 224.682901 
Q 521.13474 221.406968 516.08214 221.406968 
L 274.56786 221.406968 
Q 269.51526 221.406968 269.51526 224.682901 
L 269.51526 381.272474 
Q 269.51526 384.548407 274.56786 384.548407 
z
" clip-path="url(#pe6ef4543ff)" style="fill: #ffffff; stroke-dasharray: 3.33,1.44; stroke-dashoffset: 0; stroke: #94a3b8; stroke-width: 0.9; stroke-linejoin: miter"/>
   </g>
   <g id="patch_17">
    <path d="M 295.78878 311.167519 
L 378.65142 311.167519 
Q 382.6935 311.167519 382.6935 308.546773 
L 382.6935 271.201142 
Q 382.6935 268.580396 378.65142 268.580396 
L 295.78878 268.580396 
Q 291.7467 268.580396 291.7467 271.201142 
L 291.7467 308.546773 
Q 291.7467 311.167519 295.78878 311.167519 
z
" clip-path="url(#pe6ef4543ff)" style="fill: #f3f4f6; stroke: #64748b; stroke-width: 0.9; stroke-linejoin: miter"/>
   </g>
   <g id="patch_18">
    <path d="M 406.94598 311.167519 
L 494.86122 311.167519 
Q 498.9033 311.167519 498.9033 308.546773 
L 498.9033 271.201142 
Q 498.9033 268.580396 494.86122 268.580396 
L 406.94598 268.580396 
Q 402.9039 268.580396 402.9039 271.201142 
L 402.9039 308.546773 
Q 402.9039 311.167519 406.94598 311.167519 
z
" clip-path="url(#pe6ef4543ff)" style="fill: #f3f4f6; stroke: #64748b; stroke-width: 0.9; stroke-linejoin: miter"/>
   </g>
   <g id="patch_19">
    <path d="M 382.168627 289.873957 
Q 392.798473 289.873957 402.422088 289.873957 
" clip-path="url(#pe6ef4543ff)" style="fill: none; stroke: #64748b; stroke-width: 0.9; stroke-linecap: round"/>
    <path d="M 399.222088 288.273957 
L 402.422088 289.873957 
L 399.222088 291.473957 
z
" clip-path="url(#pe6ef4543ff)" style="fill: #64748b; stroke: #64748b; stroke-width: 0.9; stroke-linecap: round"/>
   </g>
   <g id="text_24">
    <text style="fill: #0b4f6c; font: 700 10.5px 'Arial', 'Helvetica', 'DejaVu Sans', sans-serif; text-anchor: start" x="279.1152" y="235.266936" transform="rotate(-0 279.1152 235.266936)">d</text>
   </g>
   <g id="text_25">
    <text style="fill: #1f2937; font: 700 8.8px 'Arial', 'Helvetica', 'DejaVu Sans', sans-serif; text-anchor: start" x="301.8519" y="234.826264" transform="rotate(-0 301.8519 234.826264)">Feasible dispatch and evaluation</text>
   </g>
   <g id="text_26">
    <text style="fill: #1f2937; font: 700 8.4px 'Arial', 'Helvetica', 'DejaVu Sans', sans-serif; text-anchor: middle" x="337.2201" y="286.492703" transform="rotate(-0 337.2201 286.492703)">Feasibility clip</text>
   </g>
   <g id="text_27">
    <text style="fill: #475569; font: 7.2px 'Arial', 'Helvetica', 'DejaVu Sans', sans-serif" transform="translate(311.60835 294.920894)">SOC and power</text>
    <text style="fill: #475569; font: 7.2px 'Arial', 'Helvetica', 'DejaVu Sans', sans-serif" transform="translate(325.410413 302.793925)">bounds</text>
   </g>
   <g id="text_28">
    <text style="fill: #1f2937; font: 700 8.4px 'Arial', 'Helvetica', 'DejaVu Sans', sans-serif; text-anchor: middle" x="450.9036" y="286.492703" transform="rotate(-0 450.9036 286.492703)">Battery dispatch</text>
   </g>
   <g id="text_29">
    <text style="fill: #475569; font: 7.2px 'Arial', 'Helvetica', 'DejaVu Sans', sans-serif" transform="translate(421.288538 294.876456)">charge / discharge</text>
    <text style="fill: #475569; font: 7.2px 'Arial', 'Helvetica', 'DejaVu Sans', sans-serif" transform="translate(430.891538 302.833862)">into the VPP</text>
   </g>
   <g id="text_30">
    <text style="fill: #64748b; font: 7px 'Arial', 'Helvetica', 'DejaVu Sans', sans-serif" transform="translate(353.953359 356.777884)">reward, CVaR, throughput,</text>
    <text style="fill: #64748b; font: 7px 'Arial', 'Helvetica', 'DejaVu Sans', sans-serif" transform="translate(362.256563 364.263727)">OOD on real weather</text>
   </g>
  </g>
  <g id="text_31">
   <text style="fill: #1f2937; font: 700 11.2px 'Arial', 'Helvetica', 'DejaVu Sans', sans-serif; text-anchor: middle" x="264.42" y="15.35325" transform="rotate(-0 264.42 15.35325)">Language-enhanced VPP dispatch with an auditable semantic safety layer</text>
  </g>
 </g>
 <defs>
  <clipPath id="pded09817eb">
   <rect x="7.2" y="48.10275" width="252.63" height="163.796625"/>
  </clipPath>
  <clipPath id="pf7870a446c">
   <rect x="269.01" y="48.10275" width="252.63" height="163.796625"/>
  </clipPath>
  <clipPath id="p6a08ad3948">
   <rect x="7.2" y="221.079375" width="252.63" height="163.796625"/>
  </clipPath>
  <clipPath id="pe6ef4543ff">
   <rect x="269.01" y="221.079375" width="252.63" height="163.796625"/>
  </clipPath>
 </defs>
</svg>
