<?xml version="1.0" encoding="utf-8" standalone="no"?>
<!DOCTYPE svg PUBLIC "-//W3C//DTD SVG 1.1//EN"
  "http://www.w3.org/Graphics/SVG/1.1/DTD/svg11.dtd">
<svg xmlns:xlink="http://www.w3.org/1999/xlink" width="516.6pt" height="244.476pt" viewBox="0 0 516.6 244.476" xmlns="http://www.w3.org/2000/svg" version="1.1">
 <metadata>
  <rdf:RDF xmlns:dc="http://purl.org/dc/elements/1.1/" xmlns:cc="http://creativecommons.org/ns#" xmlns:rdf="http://www.w3.org/1999/02/22-rdf-syntax-ns#">
   <cc:Work>
    <dc:type rdf:resource="http://purl.org/dc/dcmitype/StillImage"/>
    <dc:date>2026-07-05T16:59:44.656825</dc:date>
    <dc:format>image/svg+xml</dc:format>
    <dc:creator>
     <cc:Agent>
      <dc:title>Matplotlib v3.7.5, https://matplotlib.org/</dc:title>
     </cc:Agent>
    </dc:creator>
   </cc:Work>
  </rdf:RDF>
 </metadata>
 <defs>
  <style type="text/css">*{stroke-linejoin: round; stroke-linecap: butt}</style>
 </defs>
 <g id="figure_1">
  <g id="patch_1">
   <path d="M 0 244.476 
L 516.6 244.476 
L 516.6 0 
L 0 0 
z
" style="fill: #ffffff"/>
  </g>
  <g id="axes_1">
   <g id="patch_2">
    <path d="M 14.733 224.62182 
L 102.618 224.62182 
L 102.618 40.56102 
L 14.733 40.56102 
z
" clip-path="url(#p61afe3c54e)" style="fill: #f5f7fa"/>
   </g>
   <g id="patch_3">
    <path d="M 107.64 224.62182 
L 195.525 224.62182 
L 195.525 40.56102 
L 107.64 40.56102 
z
" clip-path="url(#p61afe3c54e)" style="fill: #f7f3fb"/>
   </g>
   <g id="patch_4">
    <path d="M 200.547 224.62182 
L 403.938 224.62182 
L 403.938 40.56102 
L 200.547 40.56102 
z
" clip-path="url(#p61afe3c54e)" style="fill: #f3f8f4"/>
   </g>
   <g id="patch_5">
    <path d="M 408.96 224.62182 
L 501.867 224.62182 
L 501.867 40.56102 
L 408.96 40.56102 
z
" clip-path="url(#p61afe3c54e)" style="fill: #faf6f0"/>
   </g>
   <g id="patch_6">
    <path d="M 97.091348 90.02736 
Q 105.131748 90.02736 111.88641 90.02736 
" clip-path="url(#p61afe3c54e)" style="fill: none; stroke: #2f6f3e; stroke-width: 1.15; stroke-linecap: round"/>
    <path d="M 107.48641 87.82736 
L 111.88641 90.02736 
L 107.48641 92.22736 
z
" clip-path="url(#p61afe3c54e)" style="fill: #2f6f3e; stroke: #2f6f3e; stroke-width: 1.15; stroke-linecap: round"/>
   </g>
   <g id="patch_7">
    <path d="M 151.8336 108.280796 
Q 151.8336 123.962687 151.8336 138.35884 
" clip-path="url(#p61afe3c54e)" style="fill: none; stroke: #8a5a2b; stroke-width: 1.15; stroke-linecap: round"/>
    <path d="M 154.0336 133.95884 
L 151.8336 138.35884 
L 149.6336 133.95884 
z
" clip-path="url(#p61afe3c54e)" style="fill: #8a5a2b; stroke: #8a5a2b; stroke-width: 1.15; stroke-linecap: round"/>
   </g>
   <g id="patch_8">
    <path d="M 190.50191 154.44864 
L 203.3355 154.44864 
Q 209.3355 154.44864 209.3355 148.44864 
L 209.3355 136.029299 
" clip-path="url(#p61afe3c54e)" style="fill: none; stroke: #8a5a2b; stroke-width: 1.15; stroke-linecap: round"/>
    <path d="M 207.1355 140.429299 
L 209.3355 136.029299 
L 211.5355 140.429299 
z
" clip-path="url(#p61afe3c54e)" style="fill: #8a5a2b; stroke: #8a5a2b; stroke-width: 1.15; stroke-linecap: round"/>
   </g>
   <g id="patch_9">
    <path d="M 97.087632 163.65168 
L 203.3355 163.65168 
Q 209.3355 163.65168 209.3355 157.65168 
L 209.3355 136.028649 
" clip-path="url(#p61afe3c54e)" style="fill: none; stroke: #2f6f3e; stroke-width: 1.15; stroke-linecap: round"/>
    <path d="M 207.1355 140.428649 
L 209.3355 136.028649 
L 211.5355 140.428649 
z
" clip-path="url(#p61afe3c54e)" style="fill: #2f6f3e; stroke: #2f6f3e; stroke-width: 1.15; stroke-linecap: round"/>
   </g>
   <g id="patch_10">
    <path d="M 258.047509 116.4861 
L 264.855 116.4861 
Q 270.855 116.4861 270.855 110.4861 
L 270.855 87.711909 
" clip-path="url(#p61afe3c54e)" style="fill: none; stroke: #5f6b7a; stroke-width: 1.15; stroke-linecap: round"/>
    <path d="M 268.655 92.111909 
L 270.855 87.711909 
L 273.055 92.111909 
z
" clip-path="url(#p61afe3c54e)" style="fill: #5f6b7a; stroke: #5f6b7a; stroke-width: 1.15; stroke-linecap: round"/>
   </g>
   <g id="patch_11">
    <path d="M 258.047509 137.19294 
L 264.855 137.19294 
Q 270.855 137.19294 270.855 143.19294 
L 270.855 165.967131 
" clip-path="url(#p61afe3c54e)" style="fill: none; stroke: #5f6b7a; stroke-width: 1.15; stroke-linecap: round"/>
    <path d="M 273.055 161.567131 
L 270.855 165.967131 
L 268.655 161.567131 
z
" clip-path="url(#p61afe3c54e)" style="fill: #5f6b7a; stroke: #5f6b7a; stroke-width: 1.15; stroke-linecap: round"/>
   </g>
   <g id="patch_12">
    <path d="M 258.044118 126.83952 
Q 260.937793 126.83952 262.545728 126.83952 
" clip-path="url(#p61afe3c54e)" style="fill: none; stroke: #5f6b7a; stroke-width: 1.15; stroke-linecap: round"/>
    <path d="M 258.145728 124.63952 
L 262.545728 126.83952 
L 258.145728 129.03952 
z
" clip-path="url(#p61afe3c54e)" style="fill: #5f6b7a; stroke: #5f6b7a; stroke-width: 1.15; stroke-linecap: round"/>
   </g>
   <g id="patch_13">
    <path d="M 347.187194 85.42584 
L 373.828 85.42584 
Q 378.828 85.42584 378.828 90.42584 
L 378.828 101.547925 
" clip-path="url(#p61afe3c54e)" style="fill: none; stroke: #0f6fb5; stroke-width: 1.15; stroke-linecap: round"/>
    <path d="M 381.028 97.147925 
L 378.828 101.547925 
L 376.628 97.147925 
z
" clip-path="url(#p61afe3c54e)" style="fill: #0f6fb5; stroke: #0f6fb5; stroke-width: 1.15; stroke-linecap: round"/>
   </g>
   <g id="patch_14">
    <path d="M 347.187194 168.2532 
L 373.828 168.2532 
Q 378.828 168.2532 378.828 163.2532 
L 378.828 152.131115 
" clip-path="url(#p61afe3c54e)" style="fill: none; stroke: #d07a16; stroke-width: 1.15; stroke-linecap: round"/>
    <path d="M 376.628 156.531115 
L 378.828 152.131115 
L 381.028 156.531115 
z
" clip-path="url(#p61afe3c54e)" style="fill: #d07a16; stroke: #d07a16; stroke-width: 1.15; stroke-linecap: round"/>
   </g>
   <g id="patch_15">
    <path d="M 341.160303 126.83952 
Q 349.700203 126.83952 356.954364 126.83952 
" clip-path="url(#p61afe3c54e)" style="fill: none; stroke: #7a3ea6; stroke-width: 1.15; stroke-linecap: round"/>
    <path d="M 352.554364 124.63952 
L 356.954364 126.83952 
L 352.554364 129.03952 
z
" clip-path="url(#p61afe3c54e)" style="fill: #7a3ea6; stroke: #7a3ea6; stroke-width: 1.15; stroke-linecap: round"/>
   </g>
   <g id="patch_16">
    <path d="M 399.411146 111.88458 
L 409.9864 111.88458 
Q 414.9864 111.88458 414.9864 106.88458 
L 414.9864 87.709599 
" clip-path="url(#p61afe3c54e)" style="fill: none; stroke: #b23a2e; stroke-width: 1.15; stroke-linecap: round"/>
    <path d="M 412.7864 92.109599 
L 414.9864 87.709599 
L 417.1864 92.109599 
z
" clip-path="url(#p61afe3c54e)" style="fill: #b23a2e; stroke: #b23a2e; stroke-width: 1.15; stroke-linecap: round"/>
   </g>
   <g id="patch_17">
    <path d="M 455.1624 100.229905 
Q 455.1624 108.66382 455.1624 115.811996 
" clip-path="url(#p61afe3c54e)" style="fill: none; stroke: #b23a2e; stroke-width: 1.15; stroke-linecap: round"/>
    <path d="M 457.3624 111.411996 
L 455.1624 115.811996 
L 452.9624 111.411996 
z
" clip-path="url(#p61afe3c54e)" style="fill: #b23a2e; stroke: #b23a2e; stroke-width: 1.15; stroke-linecap: round"/>
   </g>
   <g id="patch_18">
    <path d="M 455.1624 141.183742 
Q 455.1624 151.34159 455.1624 160.213698 
" clip-path="url(#p61afe3c54e)" style="fill: none; stroke: #5f6b7a; stroke-width: 1.15; stroke-linecap: round"/>
    <path d="M 457.3624 155.813698 
L 455.1624 160.213698 
L 452.9624 155.813698 
z
" clip-path="url(#p61afe3c54e)" style="fill: #5f6b7a; stroke: #5f6b7a; stroke-width: 1.15; stroke-linecap: round"/>
   </g>
   <g id="text_1">
    <text style="fill: #1f2933; font: 700 10px 'Arial', 'Helvetica', 'DejaVu Sans', sans-serif; text-anchor: middle" x="258.3" y="18.99054" transform="rotate(-0 258.3 18.99054)">Language-Enhanced VPP Dispatch with a Learned Event-Coverage Gate</text>
   </g>
   <g id="text_2">
    <text style="fill: #2f6f3e; font: 700 8.2px 'Arial', 'Helvetica', 'DejaVu Sans', sans-serif; text-anchor: middle" x="58.4244" y="41.53239" transform="rotate(-0 58.4244 41.53239)">(a) Inputs</text>
   </g>
   <g id="text_3">
    <text style="fill: #8a5a2b; font: 700 8.2px 'Arial', 'Helvetica', 'DejaVu Sans', sans-serif; text-anchor: middle" x="151.8336" y="41.53239" transform="rotate(-0 151.8336 41.53239)">(b) LLM advisor</text>
   </g>
   <g id="text_4">
    <text style="fill: #7a3ea6; font: 700 8.2px 'Arial', 'Helvetica', 'DejaVu Sans', sans-serif; text-anchor: middle" x="302.4936" y="41.53239" transform="rotate(-0 302.4936 41.53239)">(c) Gated mixture-of-experts SAC</text>
   </g>
   <g id="text_5">
    <text style="fill: #b23a2e; font: 700 8.2px 'Arial', 'Helvetica', 'DejaVu Sans', sans-serif; text-anchor: middle" x="455.1624" y="41.53239" transform="rotate(-0 455.1624 41.53239)">(d) Output &amp; evaluation</text>
   </g>
   <g id="patch_19">
    <path d="M 24.777 108.663516 
L 92.0718 108.663516 
Q 99.1026 108.663516 99.1026 105.442452 
L 99.1026 74.612268 
Q 99.1026 71.391204 92.0718 71.391204 
L 24.777 71.391204 
Q 17.7462 71.391204 17.7462 74.612268 
L 17.7462 105.442452 
Q 17.7462 108.663516 24.777 108.663516 
z
" clip-path="url(#p61afe3c54e)" style="fill: #eaf4ee; stroke: #2f6f3e; stroke-width: 1.15; stroke-linejoin: miter"/>
   </g>
   <g id="patch_20">
    <path d="M 24.777 182.287836 
L 92.0718 182.287836 
Q 99.1026 182.287836 99.1026 179.066772 
L 99.1026 148.236588 
Q 99.1026 145.015524 92.0718 145.015524 
L 24.777 145.015524 
Q 17.7462 145.015524 17.7462 148.236588 
L 17.7462 179.066772 
Q 17.7462 182.287836 24.777 182.287836 
z
" clip-path="url(#p61afe3c54e)" style="fill: #eaf4ee; stroke: #2f6f3e; stroke-width: 1.15; stroke-linejoin: miter"/>
   </g>
   <g id="patch_21">
    <path d="M 118.1862 108.663516 
L 185.481 108.663516 
Q 192.5118 108.663516 192.5118 105.442452 
L 192.5118 74.612268 
Q 192.5118 71.391204 185.481 71.391204 
L 118.1862 71.391204 
Q 111.1554 71.391204 111.1554 74.612268 
L 111.1554 105.442452 
Q 111.1554 108.663516 118.1862 108.663516 
z
" clip-path="url(#p61afe3c54e)" style="fill: #f6eedf; stroke: #8a5a2b; stroke-width: 1.15; stroke-linejoin: miter"/>
   </g>
   <g id="patch_22">
    <path d="M 118.1862 169.633656 
L 185.481 169.633656 
Q 192.5118 169.633656 192.5118 166.412592 
L 192.5118 142.484688 
Q 192.5118 139.263624 185.481 139.263624 
L 118.1862 139.263624 
Q 111.1554 139.263624 111.1554 142.484688 
L 111.1554 166.412592 
Q 111.1554 169.633656 118.1862 169.633656 
z
" clip-path="url(#p61afe3c54e)" style="fill: #f6eedf; stroke: #8a5a2b; stroke-width: 1.15; stroke-linejoin: miter"/>
   </g>
   <g id="patch_23">
    <path d="M 213.3531 147.776436 
L 253.0269 147.776436 
Q 260.0577 147.776436 260.0577 144.555372 
L 260.0577 109.123668 
Q 260.0577 105.902604 253.0269 105.902604 
L 213.3531 105.902604 
Q 206.3223 105.902604 206.3223 109.123668 
L 206.3223 144.555372 
Q 206.3223 147.776436 213.3531 147.776436 
z
" clip-path="url(#p61afe3c54e)" style="fill: #f2f4f6; stroke: #5f6b7a; stroke-width: 1.15; stroke-linejoin: miter"/>
   </g>
   <g id="patch_24">
    <path d="M 274.8726 100.035666 
L 342.1674 100.035666 
Q 349.1982 100.035666 349.1982 96.814602 
L 349.1982 74.037078 
Q 349.1982 70.816014 342.1674 70.816014 
L 274.8726 70.816014 
Q 267.8418 70.816014 267.8418 74.037078 
L 267.8418 96.814602 
Q 267.8418 100.035666 274.8726 100.035666 
z
" clip-path="url(#p61afe3c54e)" style="fill: #e7f1fa; stroke: #0f6fb5; stroke-width: 1.15; stroke-linejoin: miter"/>
   </g>
   <g id="patch_25">
    <path d="M 274.8726 182.863026 
L 342.1674 182.863026 
Q 349.1982 182.863026 349.1982 179.641962 
L 349.1982 156.864438 
Q 349.1982 153.643374 342.1674 153.643374 
L 274.8726 153.643374 
Q 267.8418 153.643374 267.8418 156.864438 
L 267.8418 179.641962 
Q 267.8418 182.863026 274.8726 182.863026 
z
" clip-path="url(#p61afe3c54e)" style="fill: #fdf1de; stroke: #d07a16; stroke-width: 1.15; stroke-linejoin: miter"/>
   </g>
   <g id="patch_26">
    <path d="M 268.8462 138.573396 
L 336.141 138.573396 
Q 343.1718 138.573396 343.1718 135.352332 
L 343.1718 118.326708 
Q 343.1718 115.105644 336.141 115.105644 
L 268.8462 115.105644 
Q 261.8154 115.105644 261.8154 118.326708 
L 261.8154 135.352332 
Q 261.8154 138.573396 268.8462 138.573396 
z
" clip-path="url(#p61afe3c54e)" style="fill: #f0e7f8; stroke: #7a3ea6; stroke-width: 1.15; stroke-linejoin: miter"/>
   </g>
   <g id="patch_27">
    <path d="M 363.2598 151.227576 
L 394.3962 151.227576 
Q 401.427 151.227576 401.427 148.006512 
L 401.427 105.672528 
Q 401.427 102.451464 394.3962 102.451464 
L 363.2598 102.451464 
Q 356.229 102.451464 356.229 105.672528 
L 356.229 148.006512 
Q 356.229 151.227576 363.2598 151.227576 
z
" clip-path="url(#p61afe3c54e)" style="fill: #f2f4f6; stroke: #5f6b7a; stroke-width: 1.15; stroke-linejoin: miter"/>
   </g>
   <g id="patch_28">
    <path d="M 419.004 100.610856 
L 491.3208 100.610856 
Q 498.3516 100.610856 498.3516 97.389792 
L 498.3516 73.461888 
Q 498.3516 70.240824 491.3208 70.240824 
L 419.004 70.240824 
Q 411.9732 70.240824 411.9732 73.461888 
L 411.9732 97.389792 
Q 411.9732 100.610856 419.004 100.610856 
z
" clip-path="url(#p61afe3c54e)" style="fill: #fbede9; stroke: #b23a2e; stroke-width: 1.15; stroke-linejoin: miter"/>
   </g>
   <g id="patch_29">
    <path d="M 419.004 141.449346 
L 491.3208 141.449346 
Q 498.3516 141.449346 498.3516 138.228282 
L 498.3516 120.052278 
Q 498.3516 116.831214 491.3208 116.831214 
L 419.004 116.831214 
Q 411.9732 116.831214 411.9732 120.052278 
L 411.9732 138.228282 
Q 411.9732 141.449346 419.004 141.449346 
z
" clip-path="url(#p61afe3c54e)" style="fill: #fbede9; stroke: #b23a2e; stroke-width: 1.15; stroke-linejoin: miter"/>
   </g>
   <g id="patch_30">
    <path d="M 419.004 196.092396 
L 491.3208 196.092396 
Q 498.3516 196.092396 498.3516 192.871332 
L 498.3516 164.341908 
Q 498.3516 161.120844 491.3208 161.120844 
L 419.004 161.120844 
Q 411.9732 161.120844 411.9732 164.341908 
L 411.9732 192.871332 
Q 411.9732 196.092396 419.004 196.092396 
z
" clip-path="url(#p61afe3c54e)" style="fill: #f2f4f6; stroke: #5f6b7a; stroke-width: 1.15; stroke-linejoin: miter"/>
   </g>
   <g id="text_6">
    <!-- Gate semantics:  high $w$ on known events (defer to prior)   /   low $w$ on unseen events (defer to free actor) -->
    <g style="fill: #7a3ea6" transform="translate(80.764 232.771872)">
     <text>
      <tspan style="font: italic 7.6px 'Arial'" x="0 5.930969 10.171631 12.2901 16.530762 18.649231 22.461731 26.702393 33.054077 37.294739 41.5354 43.65387 45.3479 49.1604 52.9729 55.09137 57.209839 59.328308 63.56897 65.263 69.503662 73.744324 82.09906 84.217529 88.458191 92.698853 94.817322 98.629822 102.870483 107.111145 112.617676 116.858337 118.976807 123.217468 127.029968 131.27063 135.511292 137.629761 141.442261 143.56073 146.099915 150.340576 154.581238 156.699707 160.940369 163.479553 165.598022 167.716492 171.957153 174.075623 178.316284 180.855469 182.5495 186.790161 189.329346 191.86853 193.987 196.105469 198.223938 200.342407 202.460876 204.579346 206.697815 208.391846 212.632507 218.139038 226.493774 228.612244 232.852905 237.093567 239.212036 243.452698 247.693359 251.505859 255.746521 259.987183 264.227844 266.346313 270.586975 274.399475 278.640137 282.880798 284.999268 288.811768 290.930237 293.469421 297.710083 301.950745 304.069214 308.309875 310.84906 312.967529 315.085999 319.32666 321.445129 323.563599 326.102783 330.343445 334.584106 336.702576 340.943237 344.755737 346.874207 351.114868 353.654053" y="-0.171875">Gate semantics:  high  on known events (defer to prior)   /   low  on unseen events (defer to free actor)</tspan>
      <tspan style="font: oblique 7.6px 'DejaVu Sans'" x="75.862793 220.257507" y="-0.171875">ww</tspan>
     </text>
    </g>
   </g>
   <g id="text_7">
    <text style="fill: #1f2933; font: 7.2px 'Arial', 'Helvetica', 'DejaVu Sans', sans-serif" transform="translate(39.814087 79.696642)">Operational</text>
    <text style="fill: #1f2933; font: 7.2px 'Arial', 'Helvetica', 'DejaVu Sans', sans-serif" transform="translate(41.01615 87.724282)">text events</text>
    <text style="fill: #1f2933; font: 7.2px 'Arial', 'Helvetica', 'DejaVu Sans', sans-serif" transform="translate(30.615525 95.864242)">(weather, market,</text>
    <text style="fill: #1f2933; font: 7.2px 'Arial', 'Helvetica', 'DejaVu Sans', sans-serif" transform="translate(39.620587 104.088577)">curtailment)</text>
   </g>
   <g id="text_8">
    <text style="fill: #1f2933; font: 7.2px 'Arial', 'Helvetica', 'DejaVu Sans', sans-serif" transform="translate(42.221588 153.271957)">Numerical</text>
    <text style="fill: #1f2933; font: 7.2px 'Arial', 'Helvetica', 'DejaVu Sans', sans-serif" transform="translate(42.479213 161.299598)">VPP state</text>
    <text style="fill: #1f2933; font: 7.2px 'Arial', 'Helvetica', 'DejaVu Sans', sans-serif" transform="translate(33.142837 169.439557)">(load, PV, price,</text>
    <text style="fill: #1f2933; font: 7.2px 'Arial', 'Helvetica', 'DejaVu Sans', sans-serif" transform="translate(40.623525 177.669652)">SOC, time)</text>
   </g>
   <g id="text_9">
    <text style="fill: #1f2933; font: 700 7.2px 'Arial', 'Helvetica', 'DejaVu Sans', sans-serif" transform="translate(134.623912 79.704517)">DeepSeek</text>
    <text style="fill: #1f2933; font: 700 7.2px 'Arial', 'Helvetica', 'DejaVu Sans', sans-serif" transform="translate(121.223475 87.722032)">semantic encoder</text>
    <text style="fill: #1f2933; font: 700 7.2px 'Arial', 'Helvetica', 'DejaVu Sans', sans-serif" transform="translate(126.825412 95.851867)">(cached, emits</text>
    <text style="fill: #1f2933; font: 700 7.2px 'Arial', 'Helvetica', 'DejaVu Sans', sans-serif" transform="translate(134.63685 104.076202)">no action)</text>
   </g>
   <g id="text_10">
    <text style="fill: #1f2933; font: 7.2px 'Arial', 'Helvetica', 'DejaVu Sans', sans-serif" transform="translate(130.2291 148.183965)">Semantic risk</text>
    <!-- vector $s^{sem}$ -->
    <g style="fill: #1f2933" transform="translate(133.5456 156.211605)">
     <text>
      <tspan style="font: 7.2px 'Arial'" x="0 3.625 7.657104 11.282104 13.296387 17.328491 19.742798" y="-0.5750000000000002">vector </tspan>
      <tspan style="font: oblique 7.2px 'DejaVu Sans'" x="21.75708" y="-0.5750000000000002">s</tspan>
      <tspan style="font: oblique 5.04px 'DejaVu Sans'" x="25.860057 28.504112 31.626427" y="-3.2546875">sem</tspan>
     </text>
    </g>
    <text style="fill: #1f2933; font: 7.2px 'Arial', 'Helvetica', 'DejaVu Sans', sans-serif" transform="translate(131.4306 164.351565)">(5-dim, [0,1])</text>
   </g>
   <g id="text_11">
    <text style="fill: #1f2933; font: 7px 'Arial', 'Helvetica', 'DejaVu Sans', sans-serif" transform="translate(215.289688 116.876639)">Augmented</text>
    <text style="fill: #1f2933; font: 7px 'Arial', 'Helvetica', 'DejaVu Sans', sans-serif" transform="translate(225.602656 124.76332)">state</text>
    <!-- $s^{aug}\!=$ -->
    <g style="fill: #1f2933" transform="translate(222.76 132.56797)">
     <text>
      <tspan style="font: oblique 7px 'DejaVu Sans'" x="0" y="-0.5750000000000002">s</tspan>
      <tspan style="font: oblique 4.9px 'DejaVu Sans'" x="3.972728 6.975413 10.08098" y="-3.2546875">aug</tspan>
      <tspan style="font: 7px 'DejaVu Sans'" x="13.61001" y="-0.5750000000000002">=</tspan>
     </text>
    </g>
    <!-- $[s^{num}\!,s^{sem}]$ -->
    <g style="fill: #1f2933" transform="translate(214.395 140.42162)">
     <text>
      <tspan style="font: 7px 'DejaVu Sans'" x="0 16.74292 34.836644" y="-0.5750000000000002">[,]</tspan>
      <tspan style="font: oblique 7px 'DejaVu Sans'" x="2.730957 20.331787" y="-0.5750000000000002">ss</tspan>
      <tspan style="font: oblique 4.9px 'DejaVu Sans'" x="6.703685 9.809251 12.914818 24.304515 26.857396 29.872044" y="-3.2546875">numsem</tspan>
     </text>
    </g>
   </g>
   <g id="text_12">
    <text style="fill: #1f2933; font: 700 7px 'Arial', 'Helvetica', 'DejaVu Sans', sans-serif" transform="translate(280.515625 79.287146)">SAC-prior expert</text>
    <text style="fill: #1f2933; font: 700 7px 'Arial', 'Helvetica', 'DejaVu Sans', sans-serif" transform="translate(287.517812 87.191152)">(regularized;</text>
    <text style="fill: #1f2933; font: 700 7px 'Arial', 'Helvetica', 'DejaVu Sans', sans-serif" transform="translate(279.165391 95.187034)">strong on known)</text>
   </g>
   <g id="text_13">
    <text style="fill: #1f2933; font: 700 7px 'Arial', 'Helvetica', 'DejaVu Sans', sans-serif" transform="translate(282.067656 162.114506)">SAC-free expert</text>
    <text style="fill: #1f2933; font: 700 7px 'Arial', 'Helvetica', 'DejaVu Sans', sans-serif" transform="translate(283.045469 170.018512)">(no regularizer;</text>
    <text style="fill: #1f2933; font: 700 7px 'Arial', 'Helvetica', 'DejaVu Sans', sans-serif" transform="translate(274.68375 178.014394)">adaptive on unseen)</text>
   </g>
   <g id="text_14">
    <text style="fill: #1f2933; font: 700 7px 'Arial', 'Helvetica', 'DejaVu Sans', sans-serif" transform="translate(280.711022 124.118314)">Learned gate</text>
    <!-- $g_\psi(s)\!\to\! w$ -->
    <g style="fill: #1f2933" transform="translate(289.3336 132.401195)">
     <text>
      <tspan style="font: oblique 7px 'DejaVu Sans'" x="0 10.598096 20.568265" y="-0.6875">gsw</tspan>
      <tspan style="font: oblique 4.9px 'DejaVu Sans'" x="4.443359" y="0.4609375">ψ</tspan>
      <tspan style="font: 7px 'DejaVu Sans'" x="7.867139 14.245068 15.839528" y="-0.6875">()→</tspan>
     </text>
    </g>
   </g>
   <g id="text_15">
    <text style="fill: #1f2933; font: 6.6px 'Arial', 'Helvetica', 'DejaVu Sans', sans-serif" transform="translate(370.38825 120.465013)">Blend</text>
    <!-- $a=(1\!-\!w)a^{free}$ -->
    <g style="fill: #1f2933" transform="translate(355.53 129.052603)">
     <text>
      <tspan style="font: oblique 6.6px 'DejaVu Sans'" x="0 24.973102 32.976153" y="-0.6015625">awa</tspan>
      <tspan style="font: 6.6px 'DejaVu Sans'" x="5.350464 12.1922 14.776855 19.206979 30.391498" y="-0.6015625">=(1−)</tspan>
      <tspan style="font: oblique 4.62px 'DejaVu Sans'" x="37.361662 38.994297 40.900926 43.754075" y="-3.28125">free</tspan>
     </text>
    </g>
    <!-- $+\,w\,a^{prior}$ -->
    <g style="fill: #1f2933" transform="translate(364.605 136.626433)">
     <text>
      <tspan style="font: 6.6px 'DejaVu Sans'" x="0" y="-0.6015625">+</tspan>
      <tspan style="font: oblique 6.6px 'DejaVu Sans'" x="6.626639 13.120648" y="-0.6015625">wa</tspan>
      <tspan style="font: oblique 4.62px 'DejaVu Sans'" x="17.506157 20.449883 22.356511 23.644957 26.482256" y="-3.28125">prior</tspan>
     </text>
    </g>
   </g>
   <g id="text_16">
    <text style="fill: #1f2933; font: 7.2px 'Arial', 'Helvetica', 'DejaVu Sans', sans-serif" transform="translate(432.756338 79.01775)">Feasibility clip</text>
    <text style="fill: #1f2933; font: 7.2px 'Arial', 'Helvetica', 'DejaVu Sans', sans-serif" transform="translate(431.352338 87.242085)">(battery power,</text>
    <text style="fill: #1f2933; font: 7.2px 'Arial', 'Helvetica', 'DejaVu Sans', sans-serif" transform="translate(436.963838 95.47218)">SOC limits)</text>
   </g>
   <g id="text_17">
    <text style="fill: #1f2933; font: 700 7.2px 'Arial', 'Helvetica', 'DejaVu Sans', sans-serif" transform="translate(430.9614 126.874057)">Final dispatch</text>
    <!-- action $a^{final}$ -->
    <g style="fill: #1f2933" transform="translate(435.6504 135.139252)">
     <text>
      <tspan style="font: 700 7.2px 'Arial'" x="0 4.032104 8.064209 10.478516 12.492798 16.921387 21.349976" y="-0.6015625">action </tspan>
      <tspan style="font: oblique 7.2px 'DejaVu Sans'" x="23.364258" y="-0.6015625">a</tspan>
      <tspan style="font: oblique 5.04px 'DejaVu Sans'" x="28.132762 29.91942 31.329417 34.545897 37.655821" y="-3.28125">final</tspan>
     </text>
    </g>
   </g>
   <g id="text_18">
    <text style="fill: #1f2933; font: 7px 'Arial', 'Helvetica', 'DejaVu Sans', sans-serif" transform="translate(438.818494 164.765914)">Evaluation</text>
    <text style="fill: #1f2933; font: 7px 'Arial', 'Helvetica', 'DejaVu Sans', sans-serif" transform="translate(432.469822 172.570564)">reward, CVaR,</text>
    <text style="fill: #1f2933; font: 7px 'Arial', 'Helvetica', 'DejaVu Sans', sans-serif" transform="translate(437.455681 180.375214)">throughput,</text>
    <text style="fill: #1f2933; font: 7px 'Arial', 'Helvetica', 'DejaVu Sans', sans-serif" transform="translate(426.179119 188.261895)">OOD real weather,</text>
    <text style="fill: #1f2933; font: 7px 'Arial', 'Helvetica', 'DejaVu Sans', sans-serif" transform="translate(433.954041 196.066545)">unseen-event</text>
   </g>
   <g id="text_19">
    <!-- $a^{prior}$ -->
    <g style="fill: #0f6fb5" transform="translate(381.0224 105.89342)">
     <text>
      <tspan style="font: oblique 7.6px 'DejaVu Sans'" x="0" y="-0.6828125000000007">a</tspan>
      <tspan style="font: oblique 5.32px 'DejaVu Sans'" x="5.045151 8.433212 10.627633 12.110562 15.376132" y="-3.7453125000000007">prior</tspan>
     </text>
    </g>
   </g>
   <g id="text_20">
    <!-- $a^{free}$ -->
    <g style="fill: #d07a16" transform="translate(381.9344 151.90862)">
     <text>
      <tspan style="font: oblique 7.6px 'DejaVu Sans'" x="0" y="-0.6828125000000007">a</tspan>
      <tspan style="font: oblique 5.32px 'DejaVu Sans'" x="5.045151 6.924222 9.118643 12.402456" y="-3.7453125000000007">free</tspan>
     </text>
    </g>
   </g>
   <g id="text_21">
    <!-- $w$ -->
    <g style="fill: #7a3ea6" transform="translate(346.5844 121.901959)">
     <text>
      <tspan style="font: oblique 7.6px 'DejaVu Sans'" x="0" y="-0.625">w</tspan>
     </text>
    </g>
   </g>
  </g>
 </g>
 <defs>
  <clipPath id="p61afe3c54e">
   <rect x="7.2" y="7.2" width="502.2" height="230.076"/>
  </clipPath>
 </defs>
</svg>
